<svg xmlns="http://www.w3.org/2000/svg" xmlns:xlink="http://www.w3.org/1999/xlink" width="793" zoomAndPan="magnify" viewBox="0 0 594.95996 842.24997" height="1122" preserveAspectRatio="xMidYMid meet" version="1.0"><defs><clipPath id="48065517f1"><path d="M 43 24.53125 L 551 24.53125 L 551 815.910156 L 43 815.910156 Z M 43 24.53125 " clip-rule="nonzero"/></clipPath></defs><g clip-path="url(#48065517f1)"><path fill="#9200e6" d="M 306.449219 685.765625 C 326.394531 703.851562 358.558594 737.238281 357.785156 764.132812 C 357.785156 765.367188 357.628906 766.605469 357.628906 767.996094 C 354.847656 798.601562 328.558594 816.066406 297.171875 815.910156 C 258.515625 815.757812 235.476562 789.945312 237.332031 760.578125 C 238.878906 735.539062 269.027344 703.851562 287.429688 687.003906 C 290.984375 683.757812 291.605469 682.832031 296.089844 681.4375 C 301.34375 681.4375 302.117188 681.902344 306.449219 685.765625 Z M 513.800781 128.554688 C 488.597656 88.832031 454.113281 65.800781 415.921875 48.027344 C 376.492188 31.488281 331.496094 24.222656 297.480469 24.53125 C 229.289062 24.53125 187.386719 44.933594 172.078125 51.273438 C 89.199219 94.394531 41.574219 159.3125 43.894531 269.675781 C 54.875 396.726562 193.882812 541.710938 284.800781 631.050781 C 287.429688 633.523438 291.757812 638.007812 294.386719 638.933594 L 299.488281 639.089844 C 302.738281 638.007812 302.273438 638.316406 304.902344 635.84375 C 385.769531 559.796875 522.460938 410.484375 545.960938 302.441406 C 556.785156 241.851562 550.753906 190.382812 513.800781 128.554688 Z M 289.441406 568.453125 C 246.144531 489.46875 188.625 366.433594 182.285156 276.320312 C 177.027344 202.902344 199.910156 73.53125 289.441406 65.027344 Z M 508.851562 302.75 C 483.492188 390.546875 389.328125 500.597656 325.003906 565.976562 C 367.988281 485.757812 425.820312 359.941406 428.910156 269.367188 C 431.386719 198.417969 413.757812 105.835938 354.691406 66.265625 C 492 94.550781 533.28125 217.894531 508.851562 302.75 Z M 508.851562 302.75 " fill-opacity="1" fill-rule="nonzero"/></g></svg>